# xmcd
#
# Track frame offsets:
#	150
#	24052
#	43667
#	62097
#	86069
#	106273
#	129115
#	149060
#	167369
#	192064
#	216017
#
# Disc length: 3129 seconds
#
# Revision: 0
# Processed by: cddbd v1.5.2PL0 Copyright (c) Steve Scherf et al.
# Submitted via: EasyCDDAExtractor 16.0.6.1
#
DISCID=8b0c370b
DTITLE=Various Artist - Top Hits 52: Chàng
DYEAR=2012
DGENRE=Alternative
TTITLE0=Ngọc Anh  - Nụ Hồng Valentines ©
TTITLE1=Lam Anh - Những Lời Mê Hoặc
TTITLE2=Quỳnh Vi - Chàng
TTITLE3=Minh Tuyết and Bằng Kiề - Ngỡ, Một Lần Nữa Em Quay Về ©
TTITLE4=Khang Việt - Bài Hát Cho Người Kỹ Nữ
TTITLE5=Thu Phương - Dạ Khúc Cho Tình Nhân
TTITLE6=Thanh Hà - Yêu Là Chết Ở Trong Lòng
TTITLE7=Thế Sơn  - Tình Hờ
TTITLE8=Ngọc Hạ  - Mình Ơi
TTITLE9=Trần Thái Hòa - Tình Khúc Buồn
TTITLE10=Khánh Hà and Tuấn Ngọc - Time to Say Goodbye
EXTD=
EXTT0=
EXTT1=
EXTT2=
EXTT3=
EXTT4=
EXTT5=
EXTT6=
EXTT7=
EXTT8=
EXTT9=
EXTT10=
PLAYORDER=
